<svg width="35" height="36" viewBox="0 0 35 36" fill="none" xmlns="http://www.w3.org/2000/svg">
<circle cx="17.3834" cy="18.1822" r="17.273" fill="white"/>
<path d="M15.4397 10.4094C15.4397 10.0516 15.1497 9.76162 14.792 9.76162C14.4343 9.76162 14.1443 10.0516 14.1443 10.4094H15.4397ZM20.6216 10.4094C20.6216 10.0516 20.3316 9.76162 19.9739 9.76162C19.6162 9.76162 19.3262 10.0516 19.3262 10.4094H20.6216ZM15.4397 12.1367V10.4094H14.1443V12.1367H15.4397ZM20.6216 12.1367V10.4094H19.3262V12.1367H20.6216Z" fill="#5FBDFF"/>
<path fill-rule="evenodd" clip-rule="evenodd" d="M25.8041 17.1027V19.0459C25.8041 22.0783 25.8041 23.5945 25.0763 24.6837C24.7613 25.1552 24.3564 25.56 23.8849 25.8751C22.7958 26.6028 21.2796 26.6028 18.2471 26.6028H16.5198C13.4874 26.6028 11.9712 26.6028 10.8821 25.8751C10.4105 25.56 10.0057 25.1552 9.69065 24.6837C8.96289 23.5945 8.96289 22.0783 8.96289 19.0459V17.1027C8.96289 15.8983 8.96289 15.2961 9.0822 14.7991C9.46128 13.2202 10.6941 11.9873 12.2731 11.6083C12.77 11.4889 13.3722 11.4889 14.5766 11.4889H20.1904C21.3947 11.4889 21.9969 11.4889 22.4939 11.6083C24.0729 11.9873 25.3057 13.2202 25.6848 14.7991C25.8041 15.2961 25.8041 15.8983 25.8041 17.1027ZM14.3607 18.3981C14.003 18.3981 13.713 18.6881 13.713 19.0459C13.713 19.4036 14.003 19.6936 14.3607 19.6936H20.4063C20.764 19.6936 21.054 19.4036 21.054 19.0459C21.054 18.6881 20.764 18.3981 20.4063 18.3981H14.3607Z" fill="#5FBDFF"/>
</svg>
